<svg xmlns="http://www.w3.org/2000/svg" xmlns:xlink="http://www.w3.org/1999/xlink" width="1995pt" height="2027pt" viewBox="0.00 0.00 1995.00 2027.40">
<g id="graph0" class="graph" transform="scale(1 1) rotate(0) translate(4 2023.4)">
<title>MusicPlayerSystem</title>
<polygon fill="white" stroke="none" points="-4,4 -4,-2023.4 1991,-2023.4 1991,4 -4,4"/>
<text text-anchor="middle" x="993.5" y="-8.2" font-family="Segoe UI" font-size="14.00">Music Player System - Detailed UML Class Diagram</text>
<g id="clust1" class="cluster">
<title>cluster_enums</title>
<polygon fill="#efefef" stroke="black" points="8,-537.2 8,-615 219,-615 219,-537.2 8,-537.2"/>
<text text-anchor="middle" x="113.5" y="-598.4" font-family="Segoe UI" font-size="14.00">Enumerations</text>
</g>
<g id="clust2" class="cluster">
<title>cluster_main_app</title>
<polygon fill="#e6e6fa" stroke="black" points="869,-1107 869,-2011.4 1047,-2011.4 1047,-1107 869,-1107"/>
<text text-anchor="middle" x="958" y="-1994.8" font-family="Segoe UI" font-size="14.00">Application Core</text>
</g>
<g id="clust3" class="cluster">
<title>cluster_core</title>
<polygon fill="#fff0e0" stroke="black" points="246,-485.2 246,-667 376,-667 376,-485.2 246,-485.2"/>
<text text-anchor="middle" x="311" y="-650.4" font-family="Segoe UI" font-size="14.00">Core Engine</text>
</g>
<g id="clust4" class="cluster">
<title>cluster_managers</title>
<polygon fill="#d3e8d3" stroke="black" points="631,-838.4 631,-1060.2 1200,-1060.2 1200,-838.4 631,-838.4"/>
<text text-anchor="middle" x="915.5" y="-1043.6" font-family="Segoe UI" font-size="14.00">Managers (Singletons)</text>
</g>
<g id="clust5" class="cluster">
<title>cluster_models</title>
<polygon fill="#ffe4c4" stroke="black" points="1550,-32.8 1550,-438.4 1672,-438.4 1672,-32.8 1550,-32.8"/>
<text text-anchor="middle" x="1611" y="-421.8" font-family="Segoe UI" font-size="14.00">Data Models</text>
</g>
<g id="clust6" class="cluster">
<title>cluster_strategies</title>
<polygon fill="#b0e0e6" stroke="black" points="1327,-713.8 1327,-1040.2 1789,-1040.2 1789,-713.8 1327,-713.8"/>
<text text-anchor="middle" x="1558" y="-1023.6" font-family="Segoe UI" font-size="14.00">Playback Strategies (Strategy Pattern)</text>
</g>
<g id="clust7" class="cluster">
<title>cluster_devices</title>
<polygon fill="#ffdab9" stroke="black" points="490,-308.6 490,-791.6 1068,-791.6 1068,-308.6 490,-308.6"/>
<text text-anchor="middle" x="779" y="-775" font-family="Segoe UI" font-size="14.00">Audio Devices &amp; Adapters</text>
</g>
<g id="clust8" class="cluster">
<title>cluster_external_apis</title>
<polygon fill="#f5f5dc" stroke="black" points="1076,-306.6 1076,-388.4 1523,-388.4 1523,-306.6 1076,-306.6"/>
<text text-anchor="middle" x="1299.5" y="-371.8" font-family="Segoe UI" font-size="14.00">External APIs (Third-Party)</text>
</g>
<!-- DeviceType -->
<g id="node1" class="node">
<title>DeviceType</title>
<polygon fill="#ffffff" stroke="black" points="146.57,-545.7 146.57,-581.7 211.43,-581.7 211.43,-545.7 146.57,-545.7"/>
<text text-anchor="middle" x="179" y="-560.7" font-family="Segoe UI" font-size="10.00">DeviceType</text>
</g>
<!-- PlayStrategyType -->
<g id="node2" class="node">
<title>PlayStrategyType</title>
<polygon fill="#ffffff" stroke="black" points="16.17,-545.7 16.17,-581.7 103.83,-581.7 103.83,-545.7 16.17,-545.7"/>
<text text-anchor="middle" x="60" y="-560.7" font-family="Segoe UI" font-size="10.00">PlayStrategyType</text>
</g>
<!-- main -->
<g id="node3" class="node">
<title>main</title>
<ellipse fill="lightblue" stroke="black" cx="958" cy="-1960.6" rx="27" ry="18"/>
<text text-anchor="middle" x="958" y="-1957.6" font-family="Segoe UI" font-size="10.00">main()</text>
</g>
<!-- MusicPlayerApplication -->
<g id="node4" class="node">
<title>MusicPlayerApplication</title>
<polygon fill="lightgoldenrodyellow" stroke="black" points="876.68,-1499.3 876.68,-1859.3 1039.32,-1859.3 1039.32,-1499.3 876.68,-1499.3"/>
<text text-anchor="middle" x="958" y="-1846.3" font-family="Segoe UI" font-size="10.00">MusicPlayerApplication (Singleton)</text>
<polyline fill="none" stroke="black" points="876.68,-1839.3 1039.32,-1839.3"/>
<polyline fill="none" stroke="black" points="876.68,-1839.3 1039.32,-1839.3"/>
<text text-anchor="middle" x="958" y="-1826.3" font-family="Segoe UI" font-size="10.00">- instance: MusicPlayerApplication*</text>
<polyline fill="none" stroke="black" points="876.68,-1819.3 1039.32,-1819.3"/>
<text text-anchor="middle" x="958" y="-1806.3" font-family="Segoe UI" font-size="10.00">+ getInstance()</text>
<polyline fill="none" stroke="black" points="876.68,-1799.3 1039.32,-1799.3"/>
<text text-anchor="middle" x="958" y="-1786.3" font-family="Segoe UI" font-size="10.00">+ createSongInLibrary()</text>
<polyline fill="none" stroke="black" points="876.68,-1779.3 1039.32,-1779.3"/>
<text text-anchor="middle" x="958" y="-1766.3" font-family="Segoe UI" font-size="10.00">+ findSongByTitle()</text>
<polyline fill="none" stroke="black" points="876.68,-1759.3 1039.32,-1759.3"/>
<text text-anchor="middle" x="958" y="-1746.3" font-family="Segoe UI" font-size="10.00">+ createPlaylist()</text>
<polyline fill="none" stroke="black" points="876.68,-1739.3 1039.32,-1739.3"/>
<text text-anchor="middle" x="958" y="-1726.3" font-family="Segoe UI" font-size="10.00">+ deletePlaylist()</text>
<polyline fill="none" stroke="black" points="876.68,-1719.3 1039.32,-1719.3"/>
<text text-anchor="middle" x="958" y="-1706.3" font-family="Segoe UI" font-size="10.00">+ addSongToPlaylist()</text>
<polyline fill="none" stroke="black" points="876.68,-1699.3 1039.32,-1699.3"/>
<text text-anchor="middle" x="958" y="-1686.3" font-family="Segoe UI" font-size="10.00">+ removeSongFromPlaylist()</text>
<polyline fill="none" stroke="black" points="876.68,-1679.3 1039.32,-1679.3"/>
<text text-anchor="middle" x="958" y="-1666.3" font-family="Segoe UI" font-size="10.00">+ connectAudioDevice()</text>
<polyline fill="none" stroke="black" points="876.68,-1659.3 1039.32,-1659.3"/>
<text text-anchor="middle" x="958" y="-1646.3" font-family="Segoe UI" font-size="10.00">+ selectPlayStrategy()</text>
<polyline fill="none" stroke="black" points="876.68,-1639.3 1039.32,-1639.3"/>
<text text-anchor="middle" x="958" y="-1626.3" font-family="Segoe UI" font-size="10.00">+ loadPlaylist()</text>
<polyline fill="none" stroke="black" points="876.68,-1619.3 1039.32,-1619.3"/>
<text text-anchor="middle" x="958" y="-1606.3" font-family="Segoe UI" font-size="10.00">+ playSingleSong()</text>
<polyline fill="none" stroke="black" points="876.68,-1599.3 1039.32,-1599.3"/>
<text text-anchor="middle" x="958" y="-1586.3" font-family="Segoe UI" font-size="10.00">+ pauseCurrentSong()</text>
<polyline fill="none" stroke="black" points="876.68,-1579.3 1039.32,-1579.3"/>
<text text-anchor="middle" x="958" y="-1566.3" font-family="Segoe UI" font-size="10.00">+ playAllTracksInPlaylist()</text>
<polyline fill="none" stroke="black" points="876.68,-1559.3 1039.32,-1559.3"/>
<text text-anchor="middle" x="958" y="-1546.3" font-family="Segoe UI" font-size="10.00">+ playPreviousTrackInPlaylist()</text>
<polyline fill="none" stroke="black" points="876.68,-1539.3 1039.32,-1539.3"/>
<text text-anchor="middle" x="958" y="-1526.3" font-family="Segoe UI" font-size="10.00">+ queueSongNext()</text>
<polyline fill="none" stroke="black" points="876.68,-1519.3 1039.32,-1519.3"/>
<text text-anchor="middle" x="958" y="-1506.3" font-family="Segoe UI" font-size="10.00">+ cleanup()</text>
</g>
<!-- main&#45;&gt;MusicPlayerApplication -->
<g id="edge19" class="edge">
<title>main-&gt;MusicPlayerApplication</title>
<path fill="none" stroke="black" stroke-dasharray="5,2" d="M958,-1942.14C958,-1942.14 958,-1868.73 958,-1868.73"/>
<polygon fill="black" stroke="black" points="958,-1860.73 961.6,-1868.73 958,-1863.52 958,-1868.73 958,-1868.73 958,-1868.73 958,-1863.52 954.4,-1868.73 958,-1860.73"/>
<text text-anchor="middle" x="967.5" y="-1898.5" font-family="Segoe UI" font-size="9.00">starts</text>
</g>
<!-- MusicPlayerApplication&#45;&gt;DeviceType -->
<g id="edge23" class="edge">
<title>MusicPlayerApplication-&gt;DeviceType</title>
<path fill="none" stroke="black" stroke-dasharray="5,2" d="M876.45,-1619.13C674.66,-1619.13 168.19,-1619.13 168.19,-1619.13 168.19,-1619.13 168.19,-591.24 168.19,-591.24"/>
<polygon fill="black" stroke="black" points="168.19,-583.24 171.79,-591.24 168.19,-586.02 168.19,-591.24 168.19,-591.24 168.19,-591.24 168.19,-586.02 164.59,-591.24 168.19,-583.24"/>
</g>
<!-- MusicPlayerApplication&#45;&gt;PlayStrategyType -->
<g id="edge22" class="edge">
<title>MusicPlayerApplication-&gt;PlayStrategyType</title>
<path fill="none" stroke="black" stroke-dasharray="5,2" d="M876.33,-1739.47C654.96,-1739.47 60,-1739.47 60,-1739.47 60,-1739.47 60,-591.39 60,-591.39"/>
<polygon fill="black" stroke="black" points="60,-583.39 63.6,-591.39 60,-586.17 60,-591.39 60,-591.39 60,-591.39 60,-586.17 56.4,-591.39 60,-583.39"/>
</g>
<!-- MusicPlayerFacade -->
<g id="node5" class="node">
<title>MusicPlayerFacade</title>
<polygon fill="lightgoldenrodyellow" stroke="black" points="886.13,-1115.5 886.13,-1415.5 1029.87,-1415.5 1029.87,-1115.5 886.13,-1115.5"/>
<text text-anchor="middle" x="958" y="-1402.5" font-family="Segoe UI" font-size="10.00">MusicPlayerFacade (Singleton)</text>
<polyline fill="none" stroke="black" points="886.13,-1395.5 1029.87,-1395.5"/>
<text text-anchor="middle" x="958" y="-1382.5" font-family="Segoe UI" font-size="10.00">- audioEngine: AudioEngine*</text>
<polyline fill="none" stroke="black" points="886.13,-1375.5 1029.87,-1375.5"/>
<text text-anchor="middle" x="958" y="-1362.5" font-family="Segoe UI" font-size="10.00">- loadedPlaylist: Playlist*</text>
<polyline fill="none" stroke="black" points="886.13,-1355.5 1029.87,-1355.5"/>
<text text-anchor="middle" x="958" y="-1342.5" font-family="Segoe UI" font-size="10.00">- playStrategy: PlayStrategy*</text>
<polyline fill="none" stroke="black" points="886.13,-1335.5 1029.87,-1335.5"/>
<text text-anchor="middle" x="958" y="-1322.5" font-family="Segoe UI" font-size="10.00">- instance: MusicPlayerFacade*</text>
<polyline fill="none" stroke="black" points="886.13,-1315.5 1029.87,-1315.5"/>
<text text-anchor="middle" x="958" y="-1302.5" font-family="Segoe UI" font-size="10.00">+ getInstance()</text>
<polyline fill="none" stroke="black" points="886.13,-1295.5 1029.87,-1295.5"/>
<text text-anchor="middle" x="958" y="-1282.5" font-family="Segoe UI" font-size="10.00">+ connectDevice()</text>
<polyline fill="none" stroke="black" points="886.13,-1275.5 1029.87,-1275.5"/>
<text text-anchor="middle" x="958" y="-1262.5" font-family="Segoe UI" font-size="10.00">+ setPlayStrategy()</text>
<polyline fill="none" stroke="black" points="886.13,-1255.5 1029.87,-1255.5"/>
<text text-anchor="middle" x="958" y="-1242.5" font-family="Segoe UI" font-size="10.00">+ loadPlaylist()</text>
<polyline fill="none" stroke="black" points="886.13,-1235.5 1029.87,-1235.5"/>
<text text-anchor="middle" x="958" y="-1222.5" font-family="Segoe UI" font-size="10.00">+ playSong()</text>
<polyline fill="none" stroke="black" points="886.13,-1215.5 1029.87,-1215.5"/>
<text text-anchor="middle" x="958" y="-1202.5" font-family="Segoe UI" font-size="10.00">+ pauseSong()</text>
<polyline fill="none" stroke="black" points="886.13,-1195.5 1029.87,-1195.5"/>
<text text-anchor="middle" x="958" y="-1182.5" font-family="Segoe UI" font-size="10.00">+ playAllTracks()</text>
<polyline fill="none" stroke="black" points="886.13,-1175.5 1029.87,-1175.5"/>
<text text-anchor="middle" x="958" y="-1162.5" font-family="Segoe UI" font-size="10.00">+ playNextTrack()</text>
<polyline fill="none" stroke="black" points="886.13,-1155.5 1029.87,-1155.5"/>
<text text-anchor="middle" x="958" y="-1142.5" font-family="Segoe UI" font-size="10.00">+ playPreviousTrack()</text>
<polyline fill="none" stroke="black" points="886.13,-1135.5 1029.87,-1135.5"/>
<text text-anchor="middle" x="958" y="-1122.5" font-family="Segoe UI" font-size="10.00">+ enqueueNext()</text>
</g>
<!-- MusicPlayerApplication&#45;&gt;MusicPlayerFacade -->
<g id="edge20" class="edge">
<title>MusicPlayerApplication-&gt;MusicPlayerFacade</title>
<path fill="none" stroke="black" stroke-dasharray="5,2" d="M958,-1499.01C958,-1499.01 958,-1425.01 958,-1425.01"/>
<polygon fill="black" stroke="black" points="958,-1417.01 961.6,-1425.01 958,-1419.79 958,-1425.01 958,-1425.01 958,-1425.01 958,-1419.79 954.4,-1425.01 958,-1417.01"/>
<text text-anchor="middle" x="979.37" y="-1454.7" font-family="Segoe UI" font-size="9.00">delegates to</text>
</g>
<!-- PlaylistManager -->
<g id="node7" class="node">
<title>PlaylistManager</title>
<polygon fill="lightgoldenrodyellow" stroke="black" points="1058.49,-846.9 1058.49,-1026.9 1191.51,-1026.9 1191.51,-846.9 1058.49,-846.9"/>
<text text-anchor="middle" x="1125" y="-1013.9" font-family="Segoe UI" font-size="10.00">PlaylistManager (Singleton)</text>
<polyline fill="none" stroke="black" points="1058.49,-1006.9 1191.51,-1006.9"/>
<polyline fill="none" stroke="black" points="1058.49,-1006.9 1191.51,-1006.9"/>
<text text-anchor="middle" x="1125" y="-993.9" font-family="Segoe UI" font-size="10.00">- instance: PlaylistManager*</text>
<polyline fill="none" stroke="black" points="1058.49,-986.9 1191.51,-986.9"/>
<text text-anchor="middle" x="1125" y="-973.9" font-family="Segoe UI" font-size="10.00">+ getInstance()</text>
<polyline fill="none" stroke="black" points="1058.49,-966.9 1191.51,-966.9"/>
<text text-anchor="middle" x="1125" y="-953.9" font-family="Segoe UI" font-size="10.00">+ createPlaylist()</text>
<polyline fill="none" stroke="black" points="1058.49,-946.9 1191.51,-946.9"/>
<text text-anchor="middle" x="1125" y="-933.9" font-family="Segoe UI" font-size="10.00">+ deletePlaylist()</text>
<polyline fill="none" stroke="black" points="1058.49,-926.9 1191.51,-926.9"/>
<text text-anchor="middle" x="1125" y="-913.9" font-family="Segoe UI" font-size="10.00">+ addSongToPlaylist()</text>
<polyline fill="none" stroke="black" points="1058.49,-906.9 1191.51,-906.9"/>
<text text-anchor="middle" x="1125" y="-893.9" font-family="Segoe UI" font-size="10.00">+ removeSongFromPlaylist()</text>
<polyline fill="none" stroke="black" points="1058.49,-886.9 1191.51,-886.9"/>
<text text-anchor="middle" x="1125" y="-873.9" font-family="Segoe UI" font-size="10.00">+ getPlaylist()</text>
<polyline fill="none" stroke="black" points="1058.49,-866.9 1191.51,-866.9"/>
<text text-anchor="middle" x="1125" y="-853.9" font-family="Segoe UI" font-size="10.00">+ cleanup()</text>
</g>
<!-- MusicPlayerApplication&#45;&gt;PlaylistManager -->
<g id="edge21" class="edge">
<title>MusicPlayerApplication-&gt;PlaylistManager</title>
<path fill="none" stroke="black" stroke-dasharray="5,2" d="M1034.59,-1498.95C1034.59,-1304.99 1034.59,-1024.07 1034.59,-1024.07 1034.59,-1024.07 1049.13,-1024.07 1049.13,-1024.07"/>
<polygon fill="black" stroke="black" points="1057.13,-1024.07 1049.13,-1027.67 1054.35,-1024.07 1049.13,-1024.07 1049.13,-1024.07 1049.13,-1024.07 1054.35,-1024.07 1049.13,-1020.47 1057.13,-1024.07"/>
<text text-anchor="middle" x="1130.75" y="-1262.8" font-family="Segoe UI" font-size="9.00">uses</text>
</g>
<!-- Song -->
<g id="node10" class="node">
<title>Song</title>
<polygon fill="lightgoldenrodyellow" stroke="black" points="1561.5,-41.3 1561.5,-181.3 1642.5,-181.3 1642.5,-41.3 1561.5,-41.3"/>
<text text-anchor="middle" x="1602" y="-168.3" font-family="Segoe UI" font-size="10.00">Song</text>
<polyline fill="none" stroke="black" points="1561.5,-161.3 1642.5,-161.3"/>
<text text-anchor="middle" x="1602" y="-148.3" font-family="Segoe UI" font-size="10.00">- title: string</text>
<polyline fill="none" stroke="black" points="1561.5,-141.3 1642.5,-141.3"/>
<text text-anchor="middle" x="1602" y="-128.3" font-family="Segoe UI" font-size="10.00">- artist: string</text>
<polyline fill="none" stroke="black" points="1561.5,-121.3 1642.5,-121.3"/>
<text text-anchor="middle" x="1602" y="-108.3" font-family="Segoe UI" font-size="10.00">- filePath: string</text>
<polyline fill="none" stroke="black" points="1561.5,-101.3 1642.5,-101.3"/>
<text text-anchor="middle" x="1602" y="-88.3" font-family="Segoe UI" font-size="10.00">+ getTitle()</text>
<polyline fill="none" stroke="black" points="1561.5,-81.3 1642.5,-81.3"/>
<text text-anchor="middle" x="1602" y="-68.3" font-family="Segoe UI" font-size="10.00">+ getArtist()</text>
<polyline fill="none" stroke="black" points="1561.5,-61.3 1642.5,-61.3"/>
<text text-anchor="middle" x="1602" y="-48.3" font-family="Segoe UI" font-size="10.00">+ getFilePath()</text>
</g>
<!-- MusicPlayerApplication&#45;&gt;Song -->
<g id="edge1" class="edge">
<title>MusicPlayerApplication-&gt;Song</title>
<path fill="none" stroke="black" d="M1039.58,-1679.3C1115.49,-1679.3 1216.97,-1679.3 1216.97,-1679.3 1216.97,-1679.3 1216.97,-146.55 1216.97,-146.55 1216.97,-146.55 1550.51,-146.55 1550.51,-146.55"/>
<polygon fill="black" stroke="black" points="1550.66,-146.55 1555.46,-143.35 1560.26,-146.55 1555.46,-149.75 1550.66,-146.55"/>
<text text-anchor="middle" x="1977.5" y="-737.6" font-family="Segoe UI" font-size="9.00">owns</text>
<text text-anchor="middle" x="1554.41" y="-149.25" font-family="Segoe UI" font-size="9.00">0..*</text>
<text text-anchor="middle" x="1041.83" y="-1682" font-family="Segoe UI" font-size="9.00">1</text>
</g>
<!-- AudioEngine -->
<g id="node6" class="node">
<title>AudioEngine</title>
<polygon fill="lightgoldenrodyellow" stroke="black" points="254.5,-493.7 254.5,-633.7 367.5,-633.7 367.5,-493.7 254.5,-493.7"/>
<text text-anchor="middle" x="311" y="-620.7" font-family="Segoe UI" font-size="10.00">AudioEngine</text>
<polyline fill="none" stroke="black" points="254.5,-613.7 367.5,-613.7"/>
<text text-anchor="middle" x="311" y="-600.7" font-family="Segoe UI" font-size="10.00">- currentSong: Song*</text>
<polyline fill="none" stroke="black" points="254.5,-593.7 367.5,-593.7"/>
<text text-anchor="middle" x="311" y="-580.7" font-family="Segoe UI" font-size="10.00">- songIsPaused: bool</text>
<polyline fill="none" stroke="black" points="254.5,-573.7 367.5,-573.7"/>
<text text-anchor="middle" x="311" y="-560.7" font-family="Segoe UI" font-size="10.00">+ play()</text>
<polyline fill="none" stroke="black" points="254.5,-553.7 367.5,-553.7"/>
<text text-anchor="middle" x="311" y="-540.7" font-family="Segoe UI" font-size="10.00">+ pause()</text>
<polyline fill="none" stroke="black" points="254.5,-533.7 367.5,-533.7"/>
<text text-anchor="middle" x="311" y="-520.7" font-family="Segoe UI" font-size="10.00">+ getCurrentSongTitle()</text>
<polyline fill="none" stroke="black" points="254.5,-513.7 367.5,-513.7"/>
<text text-anchor="middle" x="311" y="-500.7" font-family="Segoe UI" font-size="10.00">+ isPaused()</text>
</g>
<!-- MusicPlayerFacade&#45;&gt;AudioEngine -->
<g id="edge2" class="edge">
<title>MusicPlayerFacade-&gt;AudioEngine</title>
<path fill="none" stroke="black" d="M1019.37,-1115.26C1019.37,-922.92 1019.37,-614.2 1019.37,-614.2 1019.37,-614.2 378.42,-614.2 378.42,-614.2"/>
<polygon fill="black" stroke="black" points="378.27,-614.2 373.47,-617.4 368.67,-614.2 373.47,-611 378.27,-614.2"/>
<text text-anchor="middle" x="349.5" y="-802.3" font-family="Segoe UI" font-size="9.00">owns</text>
<text text-anchor="middle" x="370.02" y="-616.9" font-family="Segoe UI" font-size="9.00">1</text>
<text text-anchor="middle" x="1017.12" y="-1107.16" font-family="Segoe UI" font-size="9.00">1</text>
</g>
<!-- MusicPlayerFacade&#45;&gt;PlaylistManager -->
<g id="edge24" class="edge">
<title>MusicPlayerFacade-&gt;PlaylistManager</title>
<path fill="none" stroke="black" stroke-dasharray="5,2" d="M1026.37,-1115.02C1026.37,-1064.5 1026.37,-1020.73 1026.37,-1020.73 1026.37,-1020.73 1048.9,-1020.73 1048.9,-1020.73"/>
<polygon fill="black" stroke="black" points="1056.9,-1020.73 1048.9,-1024.33 1054.12,-1020.73 1048.9,-1020.73 1048.9,-1020.73 1048.9,-1020.73 1054.12,-1020.73 1048.9,-1017.13 1056.9,-1020.73"/>
<text text-anchor="middle" x="1070.37" y="-1070.9" font-family="Segoe UI" font-size="9.00">delegates to</text>
</g>
<!-- DeviceManager -->
<g id="node8" class="node">
<title>DeviceManager</title>
<polygon fill="lightgoldenrodyellow" stroke="black" points="638.53,-856.9 638.53,-1016.9 839.47,-1016.9 839.47,-856.9 638.53,-856.9"/>
<text text-anchor="middle" x="739" y="-1003.9" font-family="Segoe UI" font-size="10.00">DeviceManager (Singleton)</text>
<polyline fill="none" stroke="black" points="638.53,-996.9 839.47,-996.9"/>
<text text-anchor="middle" x="739" y="-983.9" font-family="Segoe UI" font-size="10.00">- currentOutputDevice: IAudioOutputDevice*</text>
<polyline fill="none" stroke="black" points="638.53,-976.9 839.47,-976.9"/>
<text text-anchor="middle" x="739" y="-963.9" font-family="Segoe UI" font-size="10.00">- instance: DeviceManager*</text>
<polyline fill="none" stroke="black" points="638.53,-956.9 839.47,-956.9"/>
<text text-anchor="middle" x="739" y="-943.9" font-family="Segoe UI" font-size="10.00">+ getInstance()</text>
<polyline fill="none" stroke="black" points="638.53,-936.9 839.47,-936.9"/>
<text text-anchor="middle" x="739" y="-923.9" font-family="Segoe UI" font-size="10.00">+ connect()</text>
<polyline fill="none" stroke="black" points="638.53,-916.9 839.47,-916.9"/>
<text text-anchor="middle" x="739" y="-903.9" font-family="Segoe UI" font-size="10.00">+ getOutputDevice()</text>
<polyline fill="none" stroke="black" points="638.53,-896.9 839.47,-896.9"/>
<text text-anchor="middle" x="739" y="-883.9" font-family="Segoe UI" font-size="10.00">+ hasOutputDevice()</text>
<polyline fill="none" stroke="black" points="638.53,-876.9 839.47,-876.9"/>
<text text-anchor="middle" x="739" y="-863.9" font-family="Segoe UI" font-size="10.00">+ cleanup()</text>
</g>
<!-- MusicPlayerFacade&#45;&gt;DeviceManager -->
<g id="edge25" class="edge">
<title>MusicPlayerFacade-&gt;DeviceManager</title>
<path fill="none" stroke="black" stroke-dasharray="5,2" d="M885.68,-1265.5C821.89,-1265.5 739,-1265.5 739,-1265.5 739,-1265.5 739,-1026.5 739,-1026.5"/>
<polygon fill="black" stroke="black" points="739,-1018.5 742.6,-1026.5 739,-1021.28 739,-1026.5 739,-1026.5 739,-1026.5 739,-1021.28 735.4,-1026.5 739,-1018.5"/>
<text text-anchor="middle" x="821.37" y="-1070.9" font-family="Segoe UI" font-size="9.00">delegates to</text>
</g>
<!-- StrategyManager -->
<g id="node9" class="node">
<title>StrategyManager</title>
<polygon fill="lightgoldenrodyellow" stroke="black" points="882.13,-856.9 882.13,-1016.9 1015.87,-1016.9 1015.87,-856.9 882.13,-856.9"/>
<text text-anchor="middle" x="949" y="-1003.9" font-family="Segoe UI" font-size="10.00">StrategyManager (Singleton)</text>
<polyline fill="none" stroke="black" points="882.13,-996.9 1015.87,-996.9"/>
<text text-anchor="middle" x="949" y="-983.9" font-family="Segoe UI" font-size="10.00">- sequentialStrategy: ...*</text>
<polyline fill="none" stroke="black" points="882.13,-976.9 1015.87,-976.9"/>
<text text-anchor="middle" x="949" y="-963.9" font-family="Segoe UI" font-size="10.00">- randomStrategy: ...*</text>
<polyline fill="none" stroke="black" points="882.13,-956.9 1015.87,-956.9"/>
<text text-anchor="middle" x="949" y="-943.9" font-family="Segoe UI" font-size="10.00">- customQueueStrategy: ...*</text>
<polyline fill="none" stroke="black" points="882.13,-936.9 1015.87,-936.9"/>
<text text-anchor="middle" x="949" y="-923.9" font-family="Segoe UI" font-size="10.00">- instance: StrategyManager*</text>
<polyline fill="none" stroke="black" points="882.13,-916.9 1015.87,-916.9"/>
<text text-anchor="middle" x="949" y="-903.9" font-family="Segoe UI" font-size="10.00">+ getInstance()</text>
<polyline fill="none" stroke="black" points="882.13,-896.9 1015.87,-896.9"/>
<text text-anchor="middle" x="949" y="-883.9" font-family="Segoe UI" font-size="10.00">+ getStrategy()</text>
<polyline fill="none" stroke="black" points="882.13,-876.9 1015.87,-876.9"/>
<text text-anchor="middle" x="949" y="-863.9" font-family="Segoe UI" font-size="10.00">+ cleanup()</text>
</g>
<!-- MusicPlayerFacade&#45;&gt;StrategyManager -->
<g id="edge26" class="edge">
<title>MusicPlayerFacade-&gt;StrategyManager</title>
<path fill="none" stroke="black" stroke-dasharray="5,2" d="M951,-1115.14C951,-1115.14 951,-1026.37 951,-1026.37"/>
<polygon fill="black" stroke="black" points="951,-1018.37 954.6,-1026.37 951,-1021.15 951,-1026.37 951,-1026.37 951,-1026.37 951,-1021.15 947.4,-1026.37 951,-1018.37"/>
<text text-anchor="middle" x="972.37" y="-1070.9" font-family="Segoe UI" font-size="9.00">delegates to</text>
</g>
<!-- Playlist -->
<g id="node11" class="node">
<title>Playlist</title>
<polygon fill="lightgoldenrodyellow" stroke="black" points="1557.54,-265.1 1557.54,-405.1 1664.46,-405.1 1664.46,-265.1 1557.54,-265.1"/>
<text text-anchor="middle" x="1611" y="-392.1" font-family="Segoe UI" font-size="10.00">Playlist</text>
<polyline fill="none" stroke="black" points="1557.54,-385.1 1664.46,-385.1"/>
<text text-anchor="middle" x="1611" y="-372.1" font-family="Segoe UI" font-size="10.00">- playlistName: string</text>
<polyline fill="none" stroke="black" points="1557.54,-365.1 1664.46,-365.1"/>
<polyline fill="none" stroke="black" points="1557.54,-365.1 1664.46,-365.1"/>
<text text-anchor="middle" x="1611" y="-352.1" font-family="Segoe UI" font-size="10.00">+ getPlaylistName()</text>
<polyline fill="none" stroke="black" points="1557.54,-345.1 1664.46,-345.1"/>
<text text-anchor="middle" x="1611" y="-332.1" font-family="Segoe UI" font-size="10.00">+ getSongs()</text>
<polyline fill="none" stroke="black" points="1557.54,-325.1 1664.46,-325.1"/>
<text text-anchor="middle" x="1611" y="-312.1" font-family="Segoe UI" font-size="10.00">+ getSize()</text>
<polyline fill="none" stroke="black" points="1557.54,-305.1 1664.46,-305.1"/>
<text text-anchor="middle" x="1611" y="-292.1" font-family="Segoe UI" font-size="10.00">+ addSongToPlaylist()</text>
<polyline fill="none" stroke="black" points="1557.54,-285.1 1664.46,-285.1"/>
<text text-anchor="middle" x="1611" y="-272.1" font-family="Segoe UI" font-size="10.00">+ removeSong()</text>
</g>
<!-- MusicPlayerFacade&#45;&gt;Playlist -->
<g id="edge10" class="edge">
<title>MusicPlayerFacade-&gt;Playlist</title>
<path fill="none" stroke="black" d="M1030.09,-1265.5C1205.57,-1265.5 1640.67,-1265.5 1640.67,-1265.5 1640.67,-1265.5 1640.67,-416.07 1640.67,-416.07"/>
<polygon fill="none" stroke="black" points="1640.67,-415.91 1637.47,-411.11 1640.67,-406.31 1643.87,-411.11 1640.67,-415.91"/>
<text text-anchor="middle" x="1295.12" y="-737.6" font-family="Segoe UI" font-size="9.00">has loaded</text>
</g>
<!-- PlayStrategy -->
<g id="node12" class="node">
<title>PlayStrategy</title>
<polygon fill="lightgoldenrodyellow" stroke="black" points="1553.45,-722.3 1553.45,-758.3 1620.55,-758.3 1620.55,-722.3 1553.45,-722.3"/>
<text text-anchor="middle" x="1587" y="-737.3" font-family="Segoe UI" font-size="10.00">PlayStrategy</text>
</g>
<!-- MusicPlayerFacade&#45;&gt;PlayStrategy -->
<g id="edge11" class="edge">
<title>MusicPlayerFacade-&gt;PlayStrategy</title>
<path fill="none" stroke="black" d="M1022.87,-1115.23C1022.87,-962.91 1022.87,-749.55 1022.87,-749.55 1022.87,-749.55 1542.33,-749.55 1542.33,-749.55"/>
<polygon fill="none" stroke="black" points="1542.48,-749.55 1547.28,-746.35 1552.08,-749.55 1547.28,-752.75 1542.48,-749.55"/>
<text text-anchor="middle" x="1884.87" y="-934.2" font-family="Segoe UI" font-size="9.00">has active</text>
</g>
<!-- AudioEngine&#45;&gt;Song -->
<g id="edge12" class="edge">
<title>AudioEngine-&gt;Song</title>
<path fill="none" stroke="black" d="M311,-493.31C311,-358.27 311,-76.05 311,-76.05 311,-76.05 1550.58,-76.05 1550.58,-76.05"/>
<polygon fill="none" stroke="black" points="1550.73,-76.05 1555.53,-72.85 1560.33,-76.05 1555.53,-79.25 1550.73,-76.05"/>
<text text-anchor="middle" x="323.5" y="-332.4" font-family="Segoe UI" font-size="9.00">plays</text>
</g>
<!-- IAudioOutputDevice -->
<g id="node16" class="node">
<title>IAudioOutputDevice</title>
<polygon fill="lightgoldenrodyellow" stroke="black" points="544.79,-317.1 544.79,-353.1 645.21,-353.1 645.21,-317.1 544.79,-317.1"/>
<text text-anchor="middle" x="595" y="-332.1" font-family="Segoe UI" font-size="10.00">IAudioOutputDevice</text>
</g>
<!-- AudioEngine&#45;&gt;IAudioOutputDevice -->
<g id="edge27" class="edge">
<title>AudioEngine-&gt;IAudioOutputDevice</title>
<path fill="none" stroke="black" stroke-dasharray="5,2" d="M367.75,-506.53C445.89,-506.53 577.06,-506.53 577.06,-506.53 577.06,-506.53 577.06,-362.66 577.06,-362.66"/>
<polygon fill="black" stroke="black" points="577.06,-354.66 580.66,-362.66 577.06,-357.45 577.06,-362.66 577.06,-362.66 577.06,-362.66 577.06,-357.45 573.46,-362.66 577.06,-354.66"/>
<text text-anchor="middle" x="396.75" y="-449.1" font-family="Segoe UI" font-size="9.00">uses</text>
</g>
<!-- PlaylistManager&#45;&gt;Playlist -->
<g id="edge3" class="edge">
<title>PlaylistManager-&gt;Playlist</title>
<path fill="none" stroke="black" d="M1137.92,-846.59C1137.92,-689.05 1137.92,-380.6 1137.92,-380.6 1137.92,-380.6 1137.92,-391.25 1137.92,-391.25"/>
<polygon fill="black" stroke="black" points="1546.69,-380.87 1551.41,-377.55 1556.29,-380.62 1551.57,-383.94 1546.69,-380.87"/>
<text text-anchor="middle" x="1134.5" y="-677.7" font-family="Segoe UI" font-size="9.00">owns</text>
<text text-anchor="middle" x="1550.44" y="-383.3" font-family="Segoe UI" font-size="9.00">0..*</text>
<text text-anchor="middle" x="1135.67" y="-838.49" font-family="Segoe UI" font-size="9.00">1</text>
</g>
<!-- DeviceManager&#45;&gt;IAudioOutputDevice -->
<g id="edge4" class="edge">
<title>DeviceManager-&gt;IAudioOutputDevice</title>
<path fill="none" stroke="black" d="M658.37,-856.62C658.37,-695.11 658.37,-346.2 658.37,-346.2 658.37,-346.2 658.37,-335.55 658.37,-335.55"/>
<polygon fill="black" stroke="black" points="653.62,-339.49 651.97,-345.02 646.24,-345.62 647.88,-340.1 653.62,-339.49"/>
<text text-anchor="middle" x="467.24" y="-677.7" font-family="Segoe UI" font-size="9.00">owns active device</text>
<text text-anchor="middle" x="652.29" y="-348.9" font-family="Segoe UI" font-size="9.00">0..1</text>
<text text-anchor="middle" x="656.12" y="-848.52" font-family="Segoe UI" font-size="9.00">1</text>
</g>
<!-- DeviceFactory -->
<g id="node17" class="node">
<title>DeviceFactory</title>
<polygon fill="lightgoldenrodyellow" stroke="black" points="701.57,-722.3 701.57,-758.3 776.43,-758.3 776.43,-722.3 701.57,-722.3"/>
<text text-anchor="middle" x="739" y="-737.3" font-family="Segoe UI" font-size="10.00">DeviceFactory</text>
</g>
<!-- DeviceManager&#45;&gt;DeviceFactory -->
<g id="edge29" class="edge">
<title>DeviceManager-&gt;DeviceFactory</title>
<path fill="none" stroke="black" stroke-dasharray="5,2" d="M739,-856.65C739,-856.65 739,-767.87 739,-767.87"/>
<polygon fill="black" stroke="black" points="739,-759.87 742.6,-767.87 739,-762.65 739,-767.87 739,-767.87 739,-767.87 739,-762.65 735.4,-767.87 739,-759.87"/>
<text text-anchor="middle" x="746.75" y="-802.3" font-family="Segoe UI" font-size="9.00">uses</text>
</g>
<!-- StrategyManager&#45;&gt;PlayStrategy -->
<g id="edge5" class="edge">
<title>StrategyManager-&gt;PlayStrategy</title>
<path fill="none" stroke="black" d="M977.27,-856.65C977.27,-802.29 977.27,-740.3 977.27,-740.3 977.27,-740.3 1542.7,-740.3 1542.7,-740.3"/>
<polygon fill="black" stroke="black" points="1542.85,-740.3 1547.65,-737.1 1552.45,-740.3 1547.65,-743.5 1542.85,-740.3"/>
<text text-anchor="middle" x="1222.12" y="-802.3" font-family="Segoe UI" font-size="9.00">owns instances</text>
<text text-anchor="middle" x="1551.1" y="-743" font-family="Segoe UI" font-size="9.00">3</text>
<text text-anchor="middle" x="975.02" y="-848.55" font-family="Segoe UI" font-size="9.00">1</text>
</g>
<!-- Playlist&#45;&gt;Song -->
<g id="edge9" class="edge">
<title>Playlist-&gt;Song</title>
<path fill="none" stroke="black" d="M1602,-264.9C1602,-264.9 1602,-192.29 1602,-192.29"/>
<polygon fill="none" stroke="black" points="1602,-192.13 1598.8,-187.33 1602,-182.53 1605.2,-187.33 1602,-192.13"/>
<text text-anchor="middle" x="1625.24" y="-220.5" font-family="Segoe UI" font-size="9.00">aggregates</text>
<text text-anchor="middle" x="1608.75" y="-184.33" font-family="Segoe UI" font-size="9.00">0..*</text>
<text text-anchor="middle" x="1604.25" y="-256.8" font-family="Segoe UI" font-size="9.00">1</text>
</g>
<!-- PlayStrategy&#45;&gt;Playlist -->
<g id="edge28" class="edge">
<title>PlayStrategy-&gt;Playlist</title>
<path fill="none" stroke="black" stroke-dasharray="5,2" d="M1589.05,-721.84C1589.05,-721.84 1589.05,-414.8 1589.05,-414.8"/>
<polygon fill="black" stroke="black" points="1589.05,-406.8 1592.65,-414.8 1589.05,-409.58 1589.05,-414.8 1589.05,-414.8 1589.05,-414.8 1589.05,-409.58 1585.45,-414.8 1589.05,-406.8"/>
<text text-anchor="middle" x="1618.62" y="-561" font-family="Segoe UI" font-size="9.00">operates on</text>
</g>
<!-- SequentialPlayStrategy -->
<g id="node13" class="node">
<title>SequentialPlayStrategy</title>
<polygon fill="lightgoldenrodyellow" stroke="black" points="1334.78,-876.9 1334.78,-996.9 1455.22,-996.9 1455.22,-876.9 1334.78,-876.9"/>
<text text-anchor="middle" x="1395" y="-983.9" font-family="Segoe UI" font-size="10.00">SequentialPlayStrategy</text>
<polyline fill="none" stroke="black" points="1334.78,-976.9 1455.22,-976.9"/>
<text text-anchor="middle" x="1395" y="-963.9" font-family="Segoe UI" font-size="10.00">- currentPlaylist: Playlist*</text>
<polyline fill="none" stroke="black" points="1334.78,-956.9 1455.22,-956.9"/>
<text text-anchor="middle" x="1395" y="-943.9" font-family="Segoe UI" font-size="10.00">- currentIndex: int</text>
<polyline fill="none" stroke="black" points="1334.78,-936.9 1455.22,-936.9"/>
<text text-anchor="middle" x="1395" y="-923.9" font-family="Segoe UI" font-size="10.00">+ setPlaylist()</text>
<polyline fill="none" stroke="black" points="1334.78,-916.9 1455.22,-916.9"/>
<text text-anchor="middle" x="1395" y="-903.9" font-family="Segoe UI" font-size="10.00">+ next()</text>
<polyline fill="none" stroke="black" points="1334.78,-896.9 1455.22,-896.9"/>
<text text-anchor="middle" x="1395" y="-883.9" font-family="Segoe UI" font-size="10.00">+ ...</text>
</g>
<!-- SequentialPlayStrategy&#45;&gt;PlayStrategy -->
<g id="edge13" class="edge">
<title>SequentialPlayStrategy-&gt;PlayStrategy</title>
<path fill="none" stroke="black" d="M1455.59,-881.4C1506.03,-881.4 1569.64,-881.4 1569.64,-881.4 1569.64,-881.4 1569.64,-768.26 1569.64,-768.26"/>
<polygon fill="none" stroke="black" points="1572.44,-768.26 1569.64,-760.26 1566.84,-768.26 1572.44,-768.26"/>
</g>
<!-- RandomPlayStrategy -->
<g id="node14" class="node">
<title>RandomPlayStrategy</title>
<polygon fill="lightgoldenrodyellow" stroke="black" points="1497.78,-886.9 1497.78,-986.9 1618.22,-986.9 1618.22,-886.9 1497.78,-886.9"/>
<text text-anchor="middle" x="1558" y="-973.9" font-family="Segoe UI" font-size="10.00">RandomPlayStrategy</text>
<polyline fill="none" stroke="black" points="1497.78,-966.9 1618.22,-966.9"/>
<text text-anchor="middle" x="1558" y="-953.9" font-family="Segoe UI" font-size="10.00">- currentPlaylist: Playlist*</text>
<polyline fill="none" stroke="black" points="1497.78,-946.9 1618.22,-946.9"/>
<polyline fill="none" stroke="black" points="1497.78,-946.9 1618.22,-946.9"/>
<polyline fill="none" stroke="black" points="1497.78,-946.9 1618.22,-946.9"/>
<text text-anchor="middle" x="1558" y="-933.9" font-family="Segoe UI" font-size="10.00">+ setPlaylist()</text>
<polyline fill="none" stroke="black" points="1497.78,-926.9 1618.22,-926.9"/>
<text text-anchor="middle" x="1558" y="-913.9" font-family="Segoe UI" font-size="10.00">+ next()</text>
<polyline fill="none" stroke="black" points="1497.78,-906.9 1618.22,-906.9"/>
<text text-anchor="middle" x="1558" y="-893.9" font-family="Segoe UI" font-size="10.00">+ ...</text>
</g>
<!-- RandomPlayStrategy&#45;&gt;PlayStrategy -->
<g id="edge14" class="edge">
<title>RandomPlayStrategy-&gt;PlayStrategy</title>
<path fill="none" stroke="black" d="M1585.83,-886.53C1585.83,-886.53 1585.83,-768.07 1585.83,-768.07"/>
<polygon fill="none" stroke="black" points="1588.63,-768.07 1585.83,-760.07 1583.03,-768.07 1588.63,-768.07"/>
</g>
<!-- CustomQueueStrategy -->
<g id="node15" class="node">
<title>CustomQueueStrategy</title>
<polygon fill="lightgoldenrodyellow" stroke="black" points="1660.78,-866.9 1660.78,-1006.9 1781.22,-1006.9 1781.22,-866.9 1660.78,-866.9"/>
<text text-anchor="middle" x="1721" y="-993.9" font-family="Segoe UI" font-size="10.00">CustomQueueStrategy</text>
<polyline fill="none" stroke="black" points="1660.78,-986.9 1781.22,-986.9"/>
<text text-anchor="middle" x="1721" y="-973.9" font-family="Segoe UI" font-size="10.00">- currentPlaylist: Playlist*</text>
<polyline fill="none" stroke="black" points="1660.78,-966.9 1781.22,-966.9"/>
<text text-anchor="middle" x="1721" y="-953.9" font-family="Segoe UI" font-size="10.00">- currentIndex: int</text>
<polyline fill="none" stroke="black" points="1660.78,-946.9 1781.22,-946.9"/>
<polyline fill="none" stroke="black" points="1660.78,-946.9 1781.22,-946.9"/>
<polyline fill="none" stroke="black" points="1660.78,-946.9 1781.22,-946.9"/>
<text text-anchor="middle" x="1721" y="-933.9" font-family="Segoe UI" font-size="10.00">+ setPlaylist()</text>
<polyline fill="none" stroke="black" points="1660.78,-926.9 1781.22,-926.9"/>
<text text-anchor="middle" x="1721" y="-913.9" font-family="Segoe UI" font-size="10.00">+ next()</text>
<polyline fill="none" stroke="black" points="1660.78,-906.9 1781.22,-906.9"/>
<text text-anchor="middle" x="1721" y="-893.9" font-family="Segoe UI" font-size="10.00">+ addToNext()</text>
<polyline fill="none" stroke="black" points="1660.78,-886.9 1781.22,-886.9"/>
<text text-anchor="middle" x="1721" y="-873.9" font-family="Segoe UI" font-size="10.00">+ ...</text>
</g>
<!-- CustomQueueStrategy&#45;&gt;PlayStrategy -->
<g id="edge15" class="edge">
<title>CustomQueueStrategy-&gt;PlayStrategy</title>
<path fill="none" stroke="black" d="M1660.47,-871.4C1631.08,-871.4 1602.02,-871.4 1602.02,-871.4 1602.02,-871.4 1602.02,-768.04 1602.02,-768.04"/>
<polygon fill="none" stroke="black" points="1604.82,-768.04 1602.02,-760.04 1599.22,-768.04 1604.82,-768.04"/>
</g>
<!-- IAudioOutputDevice&#45;&gt;Song -->
<g id="edge34" class="edge">
<title>IAudioOutputDevice-&gt;Song</title>
<path fill="none" stroke="black" stroke-dasharray="5,2" d="M595,-316.79C595,-263.34 595,-111.3 595,-111.3 595,-111.3 1552.06,-111.3 1552.06,-111.3"/>
<polygon fill="black" stroke="black" points="1560.06,-111.3 1552.06,-114.9 1557.28,-111.3 1552.06,-111.3 1552.06,-111.3 1552.06,-111.3 1557.28,-111.3 1552.06,-107.7 1560.06,-111.3"/>
<text text-anchor="middle" x="1088.74" y="-220.5" font-family="Segoe UI" font-size="9.00">receives</text>
</g>
<!-- DeviceFactory&#45;&gt;DeviceType -->
<g id="edge33" class="edge">
<title>DeviceFactory-&gt;DeviceType</title>
<path fill="none" stroke="black" stroke-dasharray="5,2" d="M701.25,-746.47C577.17,-746.47 189.81,-746.47 189.81,-746.47 189.81,-746.47 189.81,-591.11 189.81,-591.11"/>
<polygon fill="black" stroke="black" points="189.81,-583.11 193.41,-591.11 189.81,-585.89 189.81,-591.11 189.81,-591.11 189.81,-591.11 189.81,-585.89 186.21,-591.11 189.81,-583.11"/>
</g>
<!-- BluetoothSpeakerAdapter -->
<g id="node18" class="node">
<title>BluetoothSpeakerAdapter</title>
<polygon fill="lightgoldenrodyellow" stroke="black" points="684.68,-533.7 684.68,-593.7 857.32,-593.7 857.32,-533.7 684.68,-533.7"/>
<text text-anchor="middle" x="771" y="-580.7" font-family="Segoe UI" font-size="10.00">BluetoothSpeakerAdapter</text>
<polyline fill="none" stroke="black" points="684.68,-573.7 857.32,-573.7"/>
<text text-anchor="middle" x="771" y="-560.7" font-family="Segoe UI" font-size="10.00">- bluetoothApi: BluetoothSpeakerAPI*</text>
<polyline fill="none" stroke="black" points="684.68,-553.7 857.32,-553.7"/>
<text text-anchor="middle" x="771" y="-540.7" font-family="Segoe UI" font-size="10.00">+ playAudio(Song*)</text>
</g>
<!-- DeviceFactory&#45;&gt;BluetoothSpeakerAdapter -->
<g id="edge30" class="edge">
<title>DeviceFactory-&gt;BluetoothSpeakerAdapter</title>
<path fill="none" stroke="black" stroke-dasharray="5,2" d="M739,-722.07C739,-722.07 739,-603.41 739,-603.41"/>
<polygon fill="black" stroke="black" points="739,-595.41 742.6,-603.41 739,-598.19 739,-603.41 739,-603.41 739,-603.41 739,-598.19 735.4,-603.41 739,-595.41"/>
<text text-anchor="middle" x="767.49" y="-677.7" font-family="Segoe UI" font-size="9.00">creates</text>
</g>
<!-- WiredSpeakerAdapter -->
<g id="node19" class="node">
<title>WiredSpeakerAdapter</title>
<polygon fill="lightgoldenrodyellow" stroke="black" points="498.41,-533.7 498.41,-593.7 641.59,-593.7 641.59,-533.7 498.41,-533.7"/>
<text text-anchor="middle" x="570" y="-580.7" font-family="Segoe UI" font-size="10.00">WiredSpeakerAdapter</text>
<polyline fill="none" stroke="black" points="498.41,-573.7 641.59,-573.7"/>
<text text-anchor="middle" x="570" y="-560.7" font-family="Segoe UI" font-size="10.00">- wiredApi: WiredSpeakerAPI*</text>
<polyline fill="none" stroke="black" points="498.41,-553.7 641.59,-553.7"/>
<text text-anchor="middle" x="570" y="-540.7" font-family="Segoe UI" font-size="10.00">+ playAudio(Song*)</text>
</g>
<!-- DeviceFactory&#45;&gt;WiredSpeakerAdapter -->
<g id="edge31" class="edge">
<title>DeviceFactory-&gt;WiredSpeakerAdapter</title>
<path fill="none" stroke="black" stroke-dasharray="5,2" d="M701.15,-734.13C650.91,-734.13 568.47,-734.13 568.47,-734.13 568.47,-734.13 568.47,-603.39 568.47,-603.39"/>
<polygon fill="black" stroke="black" points="568.47,-595.39 572.07,-603.39 568.47,-598.17 568.47,-603.39 568.47,-603.39 568.47,-603.39 568.47,-598.17 564.87,-603.39 568.47,-595.39"/>
<text text-anchor="middle" x="630.49" y="-677.7" font-family="Segoe UI" font-size="9.00">creates</text>
</g>
<!-- HeadphonesAdapter -->
<g id="node20" class="node">
<title>HeadphonesAdapter</title>
<polygon fill="lightgoldenrodyellow" stroke="black" points="900.07,-533.7 900.07,-593.7 1059.93,-593.7 1059.93,-533.7 900.07,-533.7"/>
<text text-anchor="middle" x="980" y="-580.7" font-family="Segoe UI" font-size="10.00">HeadphonesAdapter</text>
<polyline fill="none" stroke="black" points="900.07,-573.7 1059.93,-573.7"/>
<text text-anchor="middle" x="980" y="-560.7" font-family="Segoe UI" font-size="10.00">- headphonesApi: HeadphonesAPI*</text>
<polyline fill="none" stroke="black" points="900.07,-553.7 1059.93,-553.7"/>
<text text-anchor="middle" x="980" y="-540.7" font-family="Segoe UI" font-size="10.00">+ playAudio(Song*)</text>
</g>
<!-- DeviceFactory&#45;&gt;HeadphonesAdapter -->
<g id="edge32" class="edge">
<title>DeviceFactory-&gt;HeadphonesAdapter</title>
<path fill="none" stroke="black" stroke-dasharray="5,2" d="M776.56,-731.05C834.4,-731.05 938.67,-731.05 938.67,-731.05 938.67,-731.05 938.67,-603.22 938.67,-603.22"/>
<polygon fill="black" stroke="black" points="938.67,-595.22 942.27,-603.22 938.67,-598.01 938.67,-603.22 938.67,-603.22 938.67,-603.22 938.67,-598.01 935.07,-603.22 938.67,-595.22"/>
<text text-anchor="middle" x="908.49" y="-677.7" font-family="Segoe UI" font-size="9.00">creates</text>
</g>
<!-- BluetoothSpeakerAdapter&#45;&gt;IAudioOutputDevice -->
<g id="edge16" class="edge">
<title>BluetoothSpeakerAdapter-&gt;IAudioOutputDevice</title>
<path fill="none" stroke="black" d="M799.77,-533.33C799.77,-470.36 799.77,-331.4 799.77,-331.4 799.77,-331.4 655.13,-331.4 655.13,-331.4"/>
<polygon fill="none" stroke="black" points="655.13,-328.6 647.13,-331.4 655.13,-334.2 655.13,-328.6"/>
</g>
<!-- BluetoothSpeakerAPI -->
<g id="node21" class="node">
<title>BluetoothSpeakerAPI</title>
<polygon fill="lightgrey" stroke="black" points="1238.27,-315.1 1238.27,-355.1 1365.73,-355.1 1365.73,-315.1 1238.27,-315.1"/>
<text text-anchor="middle" x="1302" y="-342.1" font-family="Segoe UI" font-size="10.00">BluetoothSpeakerAPI</text>
<polyline fill="none" stroke="black" points="1238.27,-335.1 1365.73,-335.1"/>
<text text-anchor="middle" x="1302" y="-322.1" font-family="Segoe UI" font-size="10.00">+ playSoundViaBluetooth()</text>
</g>
<!-- BluetoothSpeakerAdapter&#45;&gt;BluetoothSpeakerAPI -->
<g id="edge6" class="edge">
<title>BluetoothSpeakerAdapter-&gt;BluetoothSpeakerAPI</title>
<path fill="none" stroke="black" d="M742.23,-533.26C742.23,-525.78 742.23,-519.87 742.23,-519.87 742.23,-519.87 1286.53,-519.87 1286.53,-519.87 1286.53,-519.87 1286.53,-366.23 1286.53,-366.23"/>
<polygon fill="black" stroke="black" points="1286.53,-366.08 1283.33,-361.28 1286.53,-356.48 1289.73,-361.28 1286.53,-366.08"/>
<text text-anchor="middle" x="851.5" y="-449.1" font-family="Segoe UI" font-size="9.00">owns</text>
<text text-anchor="middle" x="1284.28" y="-358.28" font-family="Segoe UI" font-size="9.00">1</text>
<text text-anchor="middle" x="739.98" y="-525.16" font-family="Segoe UI" font-size="9.00">1</text>
</g>
<!-- WiredSpeakerAdapter&#45;&gt;IAudioOutputDevice -->
<g id="edge17" class="edge">
<title>WiredSpeakerAdapter-&gt;IAudioOutputDevice</title>
<path fill="none" stroke="black" d="M609.32,-533.34C609.32,-533.34 609.32,-362.83 609.32,-362.83"/>
<polygon fill="none" stroke="black" points="612.12,-362.83 609.32,-354.83 606.52,-362.83 612.12,-362.83"/>
</g>
<!-- WiredSpeakerAPI -->
<g id="node22" class="node">
<title>WiredSpeakerAPI</title>
<polygon fill="lightgrey" stroke="black" points="1084.33,-315.1 1084.33,-355.1 1195.67,-355.1 1195.67,-315.1 1084.33,-315.1"/>
<text text-anchor="middle" x="1140" y="-342.1" font-family="Segoe UI" font-size="10.00">WiredSpeakerAPI</text>
<polyline fill="none" stroke="black" points="1084.33,-335.1 1195.67,-335.1"/>
<text text-anchor="middle" x="1140" y="-322.1" font-family="Segoe UI" font-size="10.00">+ playSoundViaCable()</text>
</g>
<!-- WiredSpeakerAdapter&#45;&gt;WiredSpeakerAPI -->
<g id="edge7" class="edge">
<title>WiredSpeakerAdapter-&gt;WiredSpeakerAPI</title>
<path fill="none" stroke="black" d="M641.88,-563.7C658.55,-563.7 671.52,-563.7 671.52,-563.7 671.52,-563.7 671.52,-338.8 671.52,-338.8 671.52,-338.8 1073.3,-338.8 1073.3,-338.8"/>
<polygon fill="black" stroke="black" points="1073.45,-338.8 1078.25,-335.6 1083.05,-338.8 1078.25,-342 1073.45,-338.8"/>
<text text-anchor="middle" x="775.5" y="-449.1" font-family="Segoe UI" font-size="9.00">owns</text>
<text text-anchor="middle" x="1081.71" y="-341.5" font-family="Segoe UI" font-size="9.00">1</text>
<text text-anchor="middle" x="644.13" y="-566.4" font-family="Segoe UI" font-size="9.00">1</text>
</g>
<!-- HeadphonesAdapter&#45;&gt;IAudioOutputDevice -->
<g id="edge18" class="edge">
<title>HeadphonesAdapter-&gt;IAudioOutputDevice</title>
<path fill="none" stroke="black" d="M980,-533.34C980,-468.84 980,-324 980,-324 980,-324 654.85,-324 654.85,-324"/>
<polygon fill="none" stroke="black" points="654.85,-321.2 646.85,-324 654.85,-326.8 654.85,-321.2"/>
</g>
<!-- HeadphonesAPI -->
<g id="node23" class="node">
<title>HeadphonesAPI</title>
<polygon fill="lightgrey" stroke="black" points="1409.11,-315.1 1409.11,-355.1 1514.89,-355.1 1514.89,-315.1 1409.11,-315.1"/>
<text text-anchor="middle" x="1462" y="-342.1" font-family="Segoe UI" font-size="10.00">HeadphonesAPI</text>
<polyline fill="none" stroke="black" points="1409.11,-335.1 1514.89,-335.1"/>
<text text-anchor="middle" x="1462" y="-322.1" font-family="Segoe UI" font-size="10.00">+ playSoundViaJack()</text>
</g>
<!-- HeadphonesAdapter&#45;&gt;HeadphonesAPI -->
<g id="edge8" class="edge">
<title>HeadphonesAdapter-&gt;HeadphonesAPI</title>
<path fill="none" stroke="black" d="M1060.32,-563.7C1190.25,-563.7 1432.16,-563.7 1432.16,-563.7 1432.16,-563.7 1432.16,-366.04 1432.16,-366.04"/>
<polygon fill="black" stroke="black" points="1432.16,-365.89 1428.96,-361.09 1432.16,-356.29 1435.36,-361.09 1432.16,-365.89"/>
<text text-anchor="middle" x="1038.5" y="-449.1" font-family="Segoe UI" font-size="9.00">owns</text>
<text text-anchor="middle" x="1429.91" y="-358.09" font-family="Segoe UI" font-size="9.00">1</text>
<text text-anchor="middle" x="1062.57" y="-566.4" font-family="Segoe UI" font-size="9.00">1</text>
</g>
</g>
</svg>